<mxfile host="app.diagrams.net" modified="2021-04-08T08:49:12.122Z" agent="5.0 (Windows NT 6.1; Win64; x64) AppleWebKit/537.36 (KHTML, like Gecko) Chrome/89.0.4389.114 Safari/537.36" etag="nz9h5NbNIm7V4DmEvLri" version="14.5.8" type="github">
  <diagram id="WxyCQpWoD7cld8w3Jl5g" name="第 1 页">
    <mxGraphModel dx="1185" dy="643" grid="1" gridSize="10" guides="1" tooltips="1" connect="1" arrows="1" fold="1" page="1" pageScale="1" pageWidth="1169" pageHeight="1654" math="0" shadow="0">
      <root>
        <mxCell id="0" />
        <mxCell id="1" parent="0" />
        <mxCell id="B9zy33VmHQFx12RCTuMV-1" value="用户中心" style="ellipse;shape=cloud;whiteSpace=wrap;html=1;fillColor=#66B2FF;strokeWidth=2;" vertex="1" parent="1">
          <mxGeometry x="330" y="110" width="90" height="60" as="geometry" />
        </mxCell>
        <mxCell id="B9zy33VmHQFx12RCTuMV-10" value="" style="edgeStyle=orthogonalEdgeStyle;rounded=0;orthogonalLoop=1;jettySize=auto;html=1;" edge="1" parent="1" source="B9zy33VmHQFx12RCTuMV-3" target="B9zy33VmHQFx12RCTuMV-9">
          <mxGeometry relative="1" as="geometry" />
        </mxCell>
        <mxCell id="B9zy33VmHQFx12RCTuMV-3" value="超级管理员" style="rounded=1;whiteSpace=wrap;html=1;arcSize=43;fillColor=#FF9999;strokeWidth=2;" vertex="1" parent="1">
          <mxGeometry x="163" y="250" width="100" height="40" as="geometry" />
        </mxCell>
        <mxCell id="B9zy33VmHQFx12RCTuMV-12" style="edgeStyle=orthogonalEdgeStyle;rounded=0;orthogonalLoop=1;jettySize=auto;html=1;exitX=0.5;exitY=1;exitDx=0;exitDy=0;" edge="1" parent="1" source="B9zy33VmHQFx12RCTuMV-6" target="B9zy33VmHQFx12RCTuMV-11">
          <mxGeometry relative="1" as="geometry" />
        </mxCell>
        <mxCell id="B9zy33VmHQFx12RCTuMV-6" value="开发者" style="rounded=1;whiteSpace=wrap;html=1;arcSize=43;fillColor=#FF9933;strokeWidth=2;" vertex="1" parent="1">
          <mxGeometry x="450" y="250" width="100" height="40" as="geometry" />
        </mxCell>
        <mxCell id="B9zy33VmHQFx12RCTuMV-7" value="终端设备" style="rounded=1;whiteSpace=wrap;html=1;arcSize=43;fillColor=#994C00;strokeWidth=2;" vertex="1" parent="1">
          <mxGeometry x="970" y="250" width="100" height="40" as="geometry" />
        </mxCell>
        <mxCell id="B9zy33VmHQFx12RCTuMV-8" value="终端用户" style="rounded=1;whiteSpace=wrap;html=1;arcSize=43;fillColor=#00CC00;strokeColor=#000000;strokeWidth=2;" vertex="1" parent="1">
          <mxGeometry x="740" y="250" width="100" height="40" as="geometry" />
        </mxCell>
        <mxCell id="B9zy33VmHQFx12RCTuMV-16" style="edgeStyle=elbowEdgeStyle;rounded=1;orthogonalLoop=1;jettySize=auto;html=1;exitX=0;exitY=0.5;exitDx=0;exitDy=0;strokeWidth=2;entryX=0;entryY=0.5;entryDx=0;entryDy=0;" edge="1" parent="1" source="B9zy33VmHQFx12RCTuMV-9" target="B9zy33VmHQFx12RCTuMV-15">
          <mxGeometry relative="1" as="geometry">
            <mxPoint x="320" y="700" as="targetPoint" />
            <Array as="points">
              <mxPoint x="60" y="560" />
            </Array>
          </mxGeometry>
        </mxCell>
        <mxCell id="B9zy33VmHQFx12RCTuMV-19" value="&lt;font color=&quot;#ff3333&quot;&gt;校验失败&lt;/font&gt;" style="edgeLabel;html=1;align=center;verticalAlign=middle;resizable=0;points=[];strokeColor=#FF3333;" vertex="1" connectable="0" parent="B9zy33VmHQFx12RCTuMV-16">
          <mxGeometry x="-0.8083" y="2" relative="1" as="geometry">
            <mxPoint x="24.17" y="-2" as="offset" />
          </mxGeometry>
        </mxCell>
        <mxCell id="B9zy33VmHQFx12RCTuMV-20" value="&lt;font color=&quot;#00994d&quot;&gt;校验通过&lt;/font&gt;" style="edgeStyle=orthogonalEdgeStyle;rounded=0;orthogonalLoop=1;jettySize=auto;html=1;exitX=0.5;exitY=1;exitDx=0;exitDy=0;fontColor=#FF3333;entryX=0.5;entryY=0;entryDx=0;entryDy=0;" edge="1" parent="1" source="B9zy33VmHQFx12RCTuMV-9" target="B9zy33VmHQFx12RCTuMV-22">
          <mxGeometry x="-0.5238" relative="1" as="geometry">
            <mxPoint x="213" y="400" as="targetPoint" />
            <mxPoint as="offset" />
          </mxGeometry>
        </mxCell>
        <mxCell id="B9zy33VmHQFx12RCTuMV-30" style="edgeStyle=elbowEdgeStyle;rounded=1;orthogonalLoop=1;jettySize=auto;html=1;exitX=0.5;exitY=1;exitDx=0;exitDy=0;entryX=0.5;entryY=0;entryDx=0;entryDy=0;elbow=vertical;strokeWidth=2;" edge="1" parent="1" source="B9zy33VmHQFx12RCTuMV-9" target="B9zy33VmHQFx12RCTuMV-27">
          <mxGeometry relative="1" as="geometry">
            <Array as="points">
              <mxPoint x="153" y="390" />
            </Array>
          </mxGeometry>
        </mxCell>
        <mxCell id="B9zy33VmHQFx12RCTuMV-9" value="&lt;span style=&quot;color: rgb(50 , 50 , 50) ; background-color: rgba(255 , 255 , 255 , 0.01)&quot;&gt;&lt;font style=&quot;font-size: 12px&quot;&gt;登录去用户&lt;/font&gt;&lt;/span&gt;&lt;div style=&quot;resize: none ; outline: 0px ; color: rgb(50 , 50 , 50)&quot;&gt;&lt;font style=&quot;font-size: 12px&quot;&gt;中心校验&lt;/font&gt;&lt;/div&gt;" style="rhombus;whiteSpace=wrap;html=1;rounded=1;arcSize=15;strokeWidth=2;" vertex="1" parent="1">
          <mxGeometry x="158" y="320" width="110" height="50" as="geometry" />
        </mxCell>
        <mxCell id="B9zy33VmHQFx12RCTuMV-33" style="edgeStyle=orthogonalEdgeStyle;rounded=0;orthogonalLoop=1;jettySize=auto;html=1;exitX=0.5;exitY=1;exitDx=0;exitDy=0;entryX=0.5;entryY=0;entryDx=0;entryDy=0;" edge="1" parent="1" source="B9zy33VmHQFx12RCTuMV-11" target="B9zy33VmHQFx12RCTuMV-32">
          <mxGeometry relative="1" as="geometry" />
        </mxCell>
        <mxCell id="B9zy33VmHQFx12RCTuMV-34" value="校验通过" style="edgeLabel;html=1;align=center;verticalAlign=middle;resizable=0;points=[];fontColor=#009900;" vertex="1" connectable="0" parent="B9zy33VmHQFx12RCTuMV-33">
          <mxGeometry x="-0.2583" y="2" relative="1" as="geometry">
            <mxPoint as="offset" />
          </mxGeometry>
        </mxCell>
        <mxCell id="B9zy33VmHQFx12RCTuMV-11" value="&lt;span style=&quot;color: rgb(50 , 50 , 50) ; background-color: rgba(255 , 255 , 255 , 0.01)&quot;&gt;&lt;font style=&quot;font-size: 12px&quot;&gt;登录去用户&lt;/font&gt;&lt;/span&gt;&lt;div style=&quot;resize: none ; outline: 0px ; color: rgb(50 , 50 , 50)&quot;&gt;&lt;font style=&quot;font-size: 12px&quot;&gt;中心校验&lt;/font&gt;&lt;/div&gt;" style="rhombus;whiteSpace=wrap;html=1;rounded=1;arcSize=15;strokeWidth=2;" vertex="1" parent="1">
          <mxGeometry x="445" y="320" width="110" height="50" as="geometry" />
        </mxCell>
        <mxCell id="B9zy33VmHQFx12RCTuMV-15" value="流程结束" style="rounded=1;whiteSpace=wrap;html=1;arcSize=43;fillColor=#FF0000;strokeWidth=2;" vertex="1" parent="1">
          <mxGeometry x="280" y="710" width="100" height="40" as="geometry" />
        </mxCell>
        <mxCell id="B9zy33VmHQFx12RCTuMV-26" style="edgeStyle=orthogonalEdgeStyle;rounded=1;orthogonalLoop=1;jettySize=auto;html=1;exitX=0.5;exitY=1;exitDx=0;exitDy=0;entryX=0.5;entryY=0;entryDx=0;entryDy=0;strokeWidth=2;" edge="1" parent="1" source="B9zy33VmHQFx12RCTuMV-22" target="B9zy33VmHQFx12RCTuMV-25">
          <mxGeometry relative="1" as="geometry" />
        </mxCell>
        <mxCell id="B9zy33VmHQFx12RCTuMV-22" value="创建设备大类" style="rounded=0;whiteSpace=wrap;html=1;strokeWidth=2;" vertex="1" parent="1">
          <mxGeometry x="163" y="412" width="100" height="40" as="geometry" />
        </mxCell>
        <mxCell id="B9zy33VmHQFx12RCTuMV-25" value="创建设备小类" style="rounded=0;whiteSpace=wrap;html=1;strokeWidth=2;" vertex="1" parent="1">
          <mxGeometry x="163" y="480" width="100" height="40" as="geometry" />
        </mxCell>
        <mxCell id="B9zy33VmHQFx12RCTuMV-31" style="edgeStyle=orthogonalEdgeStyle;rounded=1;orthogonalLoop=1;jettySize=auto;elbow=vertical;html=1;exitX=0.5;exitY=1;exitDx=0;exitDy=0;entryX=0;entryY=0.5;entryDx=0;entryDy=0;strokeWidth=2;" edge="1" parent="1" source="B9zy33VmHQFx12RCTuMV-27" target="B9zy33VmHQFx12RCTuMV-15">
          <mxGeometry relative="1" as="geometry">
            <mxPoint x="288" y="700" as="targetPoint" />
          </mxGeometry>
        </mxCell>
        <mxCell id="B9zy33VmHQFx12RCTuMV-27" value="创建全局品牌" style="rounded=0;whiteSpace=wrap;html=1;strokeWidth=2;" vertex="1" parent="1">
          <mxGeometry x="80" y="640" width="100" height="40" as="geometry" />
        </mxCell>
        <mxCell id="B9zy33VmHQFx12RCTuMV-37" style="edgeStyle=orthogonalEdgeStyle;rounded=1;orthogonalLoop=1;jettySize=auto;html=1;exitX=0.5;exitY=1;exitDx=0;exitDy=0;fontColor=#009900;strokeWidth=2;" edge="1" parent="1" source="B9zy33VmHQFx12RCTuMV-32" target="B9zy33VmHQFx12RCTuMV-36">
          <mxGeometry relative="1" as="geometry" />
        </mxCell>
        <mxCell id="B9zy33VmHQFx12RCTuMV-39" value="&lt;div&gt;&lt;span style=&quot;font-size: 11px&quot;&gt;创建的型号&lt;/span&gt;&lt;/div&gt;&lt;div&gt;&lt;span style=&quot;font-size: 11px&quot;&gt;自动拥有&lt;/span&gt;&lt;/div&gt;&lt;div&gt;&lt;span style=&quot;font-size: 11px&quot;&gt;功能集的&lt;/span&gt;&lt;/div&gt;&lt;div&gt;&lt;span style=&quot;font-size: 11px&quot;&gt;所有指令&lt;/span&gt;&lt;/div&gt;" style="edgeLabel;html=1;align=center;verticalAlign=middle;resizable=0;points=[];" vertex="1" connectable="0" parent="B9zy33VmHQFx12RCTuMV-37">
          <mxGeometry x="0.2654" y="1" relative="1" as="geometry">
            <mxPoint x="-1" y="-10.33" as="offset" />
          </mxGeometry>
        </mxCell>
        <mxCell id="B9zy33VmHQFx12RCTuMV-55" style="edgeStyle=orthogonalEdgeStyle;rounded=1;orthogonalLoop=1;jettySize=auto;html=1;exitX=0;exitY=0.5;exitDx=0;exitDy=0;entryX=1;entryY=0.5;entryDx=0;entryDy=0;strokeWidth=2;dashed=1;" edge="1" parent="1" source="B9zy33VmHQFx12RCTuMV-32" target="B9zy33VmHQFx12RCTuMV-25">
          <mxGeometry relative="1" as="geometry" />
        </mxCell>
        <mxCell id="B9zy33VmHQFx12RCTuMV-56" value="需要关联设备大类、设备小类" style="edgeLabel;html=1;align=center;verticalAlign=middle;resizable=0;points=[];" vertex="1" connectable="0" parent="B9zy33VmHQFx12RCTuMV-55">
          <mxGeometry x="-0.1751" y="2" relative="1" as="geometry">
            <mxPoint y="14.829999999999998" as="offset" />
          </mxGeometry>
        </mxCell>
        <mxCell id="B9zy33VmHQFx12RCTuMV-58" style="edgeStyle=orthogonalEdgeStyle;rounded=1;orthogonalLoop=1;jettySize=auto;html=1;exitX=0.25;exitY=1;exitDx=0;exitDy=0;strokeWidth=2;entryX=0.444;entryY=0.008;entryDx=0;entryDy=0;entryPerimeter=0;" edge="1" parent="1" source="B9zy33VmHQFx12RCTuMV-32" target="B9zy33VmHQFx12RCTuMV-59">
          <mxGeometry relative="1" as="geometry">
            <mxPoint x="420" y="520" as="targetPoint" />
          </mxGeometry>
        </mxCell>
        <mxCell id="B9zy33VmHQFx12RCTuMV-32" value="&lt;span style=&quot;color: rgb(50 , 50 , 50) ; background-color: rgba(255 , 255 , 255 , 0.01)&quot;&gt;&lt;font style=&quot;font-size: 12px&quot;&gt;创建自己的通用功能集&lt;/font&gt;&lt;/span&gt;" style="rounded=0;whiteSpace=wrap;html=1;strokeWidth=2;" vertex="1" parent="1">
          <mxGeometry x="430" y="412" width="140" height="40" as="geometry" />
        </mxCell>
        <mxCell id="B9zy33VmHQFx12RCTuMV-44" style="edgeStyle=orthogonalEdgeStyle;rounded=1;orthogonalLoop=1;jettySize=auto;html=1;exitX=0;exitY=0.5;exitDx=0;exitDy=0;entryX=1;entryY=0.5;entryDx=0;entryDy=0;dashed=1;strokeWidth=2;" edge="1" parent="1" source="B9zy33VmHQFx12RCTuMV-36" target="B9zy33VmHQFx12RCTuMV-27">
          <mxGeometry relative="1" as="geometry" />
        </mxCell>
        <mxCell id="B9zy33VmHQFx12RCTuMV-45" value="关联全局的一个品牌信息" style="edgeLabel;html=1;align=center;verticalAlign=middle;resizable=0;points=[];" vertex="1" connectable="0" parent="B9zy33VmHQFx12RCTuMV-44">
          <mxGeometry x="0.4255" y="-2" relative="1" as="geometry">
            <mxPoint x="52.5" y="2" as="offset" />
          </mxGeometry>
        </mxCell>
        <mxCell id="B9zy33VmHQFx12RCTuMV-60" style="edgeStyle=orthogonalEdgeStyle;rounded=1;orthogonalLoop=1;jettySize=auto;html=1;exitX=0;exitY=0.25;exitDx=0;exitDy=0;entryX=0.458;entryY=1.092;entryDx=0;entryDy=0;entryPerimeter=0;strokeWidth=2;" edge="1" parent="1" source="B9zy33VmHQFx12RCTuMV-36" target="B9zy33VmHQFx12RCTuMV-59">
          <mxGeometry relative="1" as="geometry" />
        </mxCell>
        <mxCell id="B9zy33VmHQFx12RCTuMV-61" style="edgeStyle=orthogonalEdgeStyle;rounded=1;orthogonalLoop=1;jettySize=auto;html=1;exitX=0.5;exitY=1;exitDx=0;exitDy=0;entryX=1;entryY=0.5;entryDx=0;entryDy=0;strokeWidth=2;" edge="1" parent="1" source="B9zy33VmHQFx12RCTuMV-36" target="B9zy33VmHQFx12RCTuMV-15">
          <mxGeometry relative="1" as="geometry" />
        </mxCell>
        <mxCell id="B9zy33VmHQFx12RCTuMV-36" value="&lt;span style=&quot;color: rgb(50 , 50 , 50) ; font-size: 13px ; background-color: rgba(255 , 255 , 255 , 0.01)&quot;&gt;创建型号&lt;/span&gt;" style="rounded=0;whiteSpace=wrap;html=1;strokeWidth=2;" vertex="1" parent="1">
          <mxGeometry x="452" y="640" width="90" height="40" as="geometry" />
        </mxCell>
        <mxCell id="B9zy33VmHQFx12RCTuMV-47" value="" style="edgeStyle=orthogonalEdgeStyle;rounded=1;orthogonalLoop=1;jettySize=auto;html=1;strokeWidth=2;" edge="1" parent="1">
          <mxGeometry relative="1" as="geometry">
            <mxPoint x="213" y="290" as="sourcePoint" />
            <mxPoint x="213" y="320" as="targetPoint" />
          </mxGeometry>
        </mxCell>
        <mxCell id="B9zy33VmHQFx12RCTuMV-48" style="edgeStyle=orthogonalEdgeStyle;rounded=1;orthogonalLoop=1;jettySize=auto;html=1;exitX=0.5;exitY=1;exitDx=0;exitDy=0;strokeWidth=2;" edge="1" parent="1">
          <mxGeometry relative="1" as="geometry">
            <mxPoint x="500" y="290" as="sourcePoint" />
            <mxPoint x="500" y="320" as="targetPoint" />
          </mxGeometry>
        </mxCell>
        <mxCell id="B9zy33VmHQFx12RCTuMV-49" style="edgeStyle=elbowEdgeStyle;rounded=1;orthogonalLoop=1;jettySize=auto;html=1;exitX=1;exitY=0.5;exitDx=0;exitDy=0;entryX=1;entryY=0.5;entryDx=0;entryDy=0;fontColor=#FF3333;strokeWidth=2;" edge="1" parent="1" target="B9zy33VmHQFx12RCTuMV-15">
          <mxGeometry relative="1" as="geometry">
            <mxPoint x="550" y="345" as="sourcePoint" />
            <mxPoint x="420" y="700" as="targetPoint" />
            <Array as="points">
              <mxPoint x="580" y="530" />
              <mxPoint x="640" y="500" />
            </Array>
          </mxGeometry>
        </mxCell>
        <mxCell id="B9zy33VmHQFx12RCTuMV-50" value="&lt;font color=&quot;#ff3333&quot;&gt;校验失败&lt;/font&gt;" style="edgeLabel;html=1;align=center;verticalAlign=middle;resizable=0;points=[];" vertex="1" connectable="0" parent="B9zy33VmHQFx12RCTuMV-49">
          <mxGeometry x="-0.8599" relative="1" as="geometry">
            <mxPoint as="offset" />
          </mxGeometry>
        </mxCell>
        <mxCell id="B9zy33VmHQFx12RCTuMV-51" value="&lt;font color=&quot;#00994d&quot;&gt;校验通过&lt;/font&gt;" style="edgeStyle=orthogonalEdgeStyle;rounded=1;orthogonalLoop=1;jettySize=auto;html=1;exitX=0.5;exitY=1;exitDx=0;exitDy=0;fontColor=#FF3333;entryX=0.5;entryY=0;entryDx=0;entryDy=0;strokeWidth=2;" edge="1" parent="1">
          <mxGeometry x="-0.5238" relative="1" as="geometry">
            <mxPoint x="213" y="412" as="targetPoint" />
            <mxPoint x="213" y="370" as="sourcePoint" />
            <mxPoint as="offset" />
          </mxGeometry>
        </mxCell>
        <mxCell id="B9zy33VmHQFx12RCTuMV-52" style="edgeStyle=orthogonalEdgeStyle;rounded=1;orthogonalLoop=1;jettySize=auto;html=1;exitX=0.5;exitY=1;exitDx=0;exitDy=0;entryX=0.5;entryY=0;entryDx=0;entryDy=0;strokeWidth=2;" edge="1" parent="1">
          <mxGeometry relative="1" as="geometry">
            <mxPoint x="500" y="370" as="sourcePoint" />
            <mxPoint x="500" y="412" as="targetPoint" />
          </mxGeometry>
        </mxCell>
        <mxCell id="B9zy33VmHQFx12RCTuMV-53" value="校验通过" style="edgeLabel;html=1;align=center;verticalAlign=middle;resizable=0;points=[];fontColor=#009900;" vertex="1" connectable="0" parent="B9zy33VmHQFx12RCTuMV-52">
          <mxGeometry x="-0.2583" y="2" relative="1" as="geometry">
            <mxPoint as="offset" />
          </mxGeometry>
        </mxCell>
        <mxCell id="B9zy33VmHQFx12RCTuMV-59" value="&lt;span style=&quot;color: rgb(50 , 50 , 50) ; background-color: rgba(255 , 255 , 255 , 0.01)&quot;&gt;&lt;font style=&quot;font-size: 12px&quot;&gt;关联多个指令集&lt;/font&gt;&lt;/span&gt;" style="shape=process;whiteSpace=wrap;html=1;backgroundOutline=1;" vertex="1" parent="1">
          <mxGeometry x="315" y="530" width="120" height="40" as="geometry" />
        </mxCell>
      </root>
    </mxGraphModel>
  </diagram>
</mxfile>
